<mxfile host="app.diagrams.net" modified="2022-01-27T03:59:21.076Z" agent="5.0 (Windows NT 10.0; Win64; x64) AppleWebKit/537.36 (KHTML, like Gecko) Chrome/97.0.4692.99 Safari/537.36 Edg/97.0.1072.69" etag="eqbHyvGGCtjDfZLg4UXi" version="15.5.4" type="github">
  <diagram id="vIiQq1wwTRpz4SdiB72X" name="Page-1">
    <mxGraphModel dx="474" dy="251" grid="1" gridSize="10" guides="1" tooltips="1" connect="1" arrows="1" fold="1" page="1" pageScale="1" pageWidth="850" pageHeight="1100" math="0" shadow="0">
      <root>
        <mxCell id="0" />
        <mxCell id="1" parent="0" />
        <mxCell id="CmY2rEqbeD9_ClXR6DBM-1" value="" style="rounded=0;whiteSpace=wrap;html=1;rotation=90;align=left;" vertex="1" parent="1">
          <mxGeometry x="220" y="460" width="410" height="140" as="geometry" />
        </mxCell>
        <mxCell id="CmY2rEqbeD9_ClXR6DBM-2" value="P1.0" style="text;html=1;strokeColor=none;fillColor=none;align=center;verticalAlign=middle;whiteSpace=wrap;rounded=0;" vertex="1" parent="1">
          <mxGeometry x="360" y="330" width="30" height="20" as="geometry" />
        </mxCell>
        <mxCell id="CmY2rEqbeD9_ClXR6DBM-3" value="P1.1" style="text;html=1;strokeColor=none;fillColor=none;align=center;verticalAlign=middle;whiteSpace=wrap;rounded=0;" vertex="1" parent="1">
          <mxGeometry x="360" y="350" width="30" height="20" as="geometry" />
        </mxCell>
        <mxCell id="CmY2rEqbeD9_ClXR6DBM-4" value="P1.2" style="text;html=1;strokeColor=none;fillColor=none;align=center;verticalAlign=middle;whiteSpace=wrap;rounded=0;" vertex="1" parent="1">
          <mxGeometry x="360" y="370" width="30" height="20" as="geometry" />
        </mxCell>
        <mxCell id="CmY2rEqbeD9_ClXR6DBM-5" value="P1.3" style="text;html=1;strokeColor=none;fillColor=none;align=center;verticalAlign=middle;whiteSpace=wrap;rounded=0;" vertex="1" parent="1">
          <mxGeometry x="360" y="390" width="30" height="20" as="geometry" />
        </mxCell>
        <mxCell id="CmY2rEqbeD9_ClXR6DBM-6" value="P1.4" style="text;html=1;strokeColor=none;fillColor=none;align=center;verticalAlign=middle;whiteSpace=wrap;rounded=0;" vertex="1" parent="1">
          <mxGeometry x="360" y="410" width="30" height="20" as="geometry" />
        </mxCell>
        <mxCell id="CmY2rEqbeD9_ClXR6DBM-7" value="P1.5" style="text;html=1;strokeColor=none;fillColor=none;align=center;verticalAlign=middle;whiteSpace=wrap;rounded=0;" vertex="1" parent="1">
          <mxGeometry x="360" y="430" width="30" height="20" as="geometry" />
        </mxCell>
        <mxCell id="CmY2rEqbeD9_ClXR6DBM-8" value="P1.6" style="text;html=1;strokeColor=none;fillColor=none;align=center;verticalAlign=middle;whiteSpace=wrap;rounded=0;" vertex="1" parent="1">
          <mxGeometry x="360" y="450" width="30" height="20" as="geometry" />
        </mxCell>
        <mxCell id="CmY2rEqbeD9_ClXR6DBM-9" value="P1.7" style="text;html=1;strokeColor=none;fillColor=none;align=center;verticalAlign=middle;whiteSpace=wrap;rounded=0;" vertex="1" parent="1">
          <mxGeometry x="360" y="470" width="30" height="20" as="geometry" />
        </mxCell>
        <mxCell id="CmY2rEqbeD9_ClXR6DBM-10" value="RST" style="text;html=1;strokeColor=none;fillColor=none;align=center;verticalAlign=middle;whiteSpace=wrap;rounded=0;" vertex="1" parent="1">
          <mxGeometry x="360" y="490" width="30" height="20" as="geometry" />
        </mxCell>
        <mxCell id="CmY2rEqbeD9_ClXR6DBM-11" value="(RXD)" style="text;html=1;strokeColor=none;fillColor=none;align=center;verticalAlign=middle;whiteSpace=wrap;rounded=0;" vertex="1" parent="1">
          <mxGeometry x="390" y="510" width="30" height="20" as="geometry" />
        </mxCell>
        <mxCell id="CmY2rEqbeD9_ClXR6DBM-12" value="(TXD)" style="text;html=1;strokeColor=none;fillColor=none;align=center;verticalAlign=middle;whiteSpace=wrap;rounded=0;" vertex="1" parent="1">
          <mxGeometry x="390" y="530" width="30" height="20" as="geometry" />
        </mxCell>
        <mxCell id="CmY2rEqbeD9_ClXR6DBM-13" value="P3.1" style="text;html=1;strokeColor=none;fillColor=none;align=center;verticalAlign=middle;whiteSpace=wrap;rounded=0;" vertex="1" parent="1">
          <mxGeometry x="360" y="530" width="30" height="20" as="geometry" />
        </mxCell>
        <mxCell id="CmY2rEqbeD9_ClXR6DBM-14" value="P3.0" style="text;html=1;strokeColor=none;fillColor=none;align=center;verticalAlign=middle;whiteSpace=wrap;rounded=0;" vertex="1" parent="1">
          <mxGeometry x="360" y="510" width="30" height="20" as="geometry" />
        </mxCell>
        <mxCell id="CmY2rEqbeD9_ClXR6DBM-15" value="P3.2" style="text;html=1;strokeColor=none;fillColor=none;align=center;verticalAlign=middle;whiteSpace=wrap;rounded=0;" vertex="1" parent="1">
          <mxGeometry x="360" y="550" width="30" height="20" as="geometry" />
        </mxCell>
        <mxCell id="CmY2rEqbeD9_ClXR6DBM-16" value="P3.3" style="text;html=1;strokeColor=none;fillColor=none;align=center;verticalAlign=middle;whiteSpace=wrap;rounded=0;" vertex="1" parent="1">
          <mxGeometry x="360" y="570" width="30" height="20" as="geometry" />
        </mxCell>
        <mxCell id="CmY2rEqbeD9_ClXR6DBM-17" value="P3.4" style="text;html=1;strokeColor=none;fillColor=none;align=center;verticalAlign=middle;whiteSpace=wrap;rounded=0;" vertex="1" parent="1">
          <mxGeometry x="360" y="590" width="30" height="20" as="geometry" />
        </mxCell>
        <mxCell id="CmY2rEqbeD9_ClXR6DBM-18" value="P3.5" style="text;html=1;strokeColor=none;fillColor=none;align=center;verticalAlign=middle;whiteSpace=wrap;rounded=0;" vertex="1" parent="1">
          <mxGeometry x="360" y="610" width="30" height="20" as="geometry" />
        </mxCell>
        <mxCell id="CmY2rEqbeD9_ClXR6DBM-19" value="P3.6" style="text;html=1;strokeColor=none;fillColor=none;align=center;verticalAlign=middle;whiteSpace=wrap;rounded=0;" vertex="1" parent="1">
          <mxGeometry x="360" y="630" width="30" height="20" as="geometry" />
        </mxCell>
        <mxCell id="CmY2rEqbeD9_ClXR6DBM-20" value="P3.7" style="text;html=1;strokeColor=none;fillColor=none;align=center;verticalAlign=middle;whiteSpace=wrap;rounded=0;" vertex="1" parent="1">
          <mxGeometry x="360" y="650" width="30" height="20" as="geometry" />
        </mxCell>
        <mxCell id="CmY2rEqbeD9_ClXR6DBM-21" value="VCC" style="text;html=1;strokeColor=none;fillColor=none;align=center;verticalAlign=middle;whiteSpace=wrap;rounded=0;" vertex="1" parent="1">
          <mxGeometry x="460" y="330" width="30" height="20" as="geometry" />
        </mxCell>
        <mxCell id="CmY2rEqbeD9_ClXR6DBM-22" value="P0.0" style="text;html=1;strokeColor=none;fillColor=none;align=center;verticalAlign=middle;whiteSpace=wrap;rounded=0;" vertex="1" parent="1">
          <mxGeometry x="460" y="350" width="30" height="20" as="geometry" />
        </mxCell>
        <mxCell id="CmY2rEqbeD9_ClXR6DBM-23" value="P0.1" style="text;html=1;strokeColor=none;fillColor=none;align=center;verticalAlign=middle;whiteSpace=wrap;rounded=0;" vertex="1" parent="1">
          <mxGeometry x="460" y="370" width="30" height="20" as="geometry" />
        </mxCell>
        <mxCell id="CmY2rEqbeD9_ClXR6DBM-24" value="P0.2" style="text;html=1;strokeColor=none;fillColor=none;align=center;verticalAlign=middle;whiteSpace=wrap;rounded=0;" vertex="1" parent="1">
          <mxGeometry x="460" y="390" width="30" height="20" as="geometry" />
        </mxCell>
        <mxCell id="CmY2rEqbeD9_ClXR6DBM-25" value="P0.3" style="text;html=1;strokeColor=none;fillColor=none;align=center;verticalAlign=middle;whiteSpace=wrap;rounded=0;" vertex="1" parent="1">
          <mxGeometry x="460" y="410" width="30" height="20" as="geometry" />
        </mxCell>
        <mxCell id="CmY2rEqbeD9_ClXR6DBM-26" value="P0.4" style="text;html=1;strokeColor=none;fillColor=none;align=center;verticalAlign=middle;whiteSpace=wrap;rounded=0;" vertex="1" parent="1">
          <mxGeometry x="460" y="430" width="30" height="20" as="geometry" />
        </mxCell>
        <mxCell id="CmY2rEqbeD9_ClXR6DBM-27" value="P0.5" style="text;html=1;strokeColor=none;fillColor=none;align=center;verticalAlign=middle;whiteSpace=wrap;rounded=0;" vertex="1" parent="1">
          <mxGeometry x="460" y="450" width="30" height="20" as="geometry" />
        </mxCell>
        <mxCell id="CmY2rEqbeD9_ClXR6DBM-28" value="P0.6" style="text;html=1;strokeColor=none;fillColor=none;align=center;verticalAlign=middle;whiteSpace=wrap;rounded=0;" vertex="1" parent="1">
          <mxGeometry x="460" y="470" width="30" height="20" as="geometry" />
        </mxCell>
        <mxCell id="CmY2rEqbeD9_ClXR6DBM-29" value="P0.7" style="text;html=1;strokeColor=none;fillColor=none;align=center;verticalAlign=middle;whiteSpace=wrap;rounded=0;" vertex="1" parent="1">
          <mxGeometry x="460" y="490" width="30" height="20" as="geometry" />
        </mxCell>
        <mxCell id="CmY2rEqbeD9_ClXR6DBM-30" value="EA" style="text;html=1;strokeColor=none;fillColor=none;align=center;verticalAlign=middle;whiteSpace=wrap;rounded=0;" vertex="1" parent="1">
          <mxGeometry x="460" y="510" width="30" height="20" as="geometry" />
        </mxCell>
        <mxCell id="CmY2rEqbeD9_ClXR6DBM-31" value="ALE" style="text;html=1;strokeColor=none;fillColor=none;align=center;verticalAlign=middle;whiteSpace=wrap;rounded=0;" vertex="1" parent="1">
          <mxGeometry x="460" y="530" width="30" height="20" as="geometry" />
        </mxCell>
        <mxCell id="CmY2rEqbeD9_ClXR6DBM-32" value="PSEN" style="text;html=1;strokeColor=none;fillColor=none;align=center;verticalAlign=middle;whiteSpace=wrap;rounded=0;" vertex="1" parent="1">
          <mxGeometry x="460" y="550" width="30" height="20" as="geometry" />
        </mxCell>
        <mxCell id="CmY2rEqbeD9_ClXR6DBM-33" value="P2.7" style="text;html=1;strokeColor=none;fillColor=none;align=center;verticalAlign=middle;whiteSpace=wrap;rounded=0;" vertex="1" parent="1">
          <mxGeometry x="460" y="570" width="30" height="20" as="geometry" />
        </mxCell>
        <mxCell id="CmY2rEqbeD9_ClXR6DBM-34" value="P2.6" style="text;html=1;strokeColor=none;fillColor=none;align=center;verticalAlign=middle;whiteSpace=wrap;rounded=0;" vertex="1" parent="1">
          <mxGeometry x="460" y="590" width="30" height="20" as="geometry" />
        </mxCell>
        <mxCell id="CmY2rEqbeD9_ClXR6DBM-35" value="P2.5" style="text;html=1;strokeColor=none;fillColor=none;align=center;verticalAlign=middle;whiteSpace=wrap;rounded=0;" vertex="1" parent="1">
          <mxGeometry x="460" y="610" width="30" height="20" as="geometry" />
        </mxCell>
        <mxCell id="CmY2rEqbeD9_ClXR6DBM-36" value="P2.4" style="text;html=1;strokeColor=none;fillColor=none;align=center;verticalAlign=middle;whiteSpace=wrap;rounded=0;" vertex="1" parent="1">
          <mxGeometry x="460" y="630" width="30" height="20" as="geometry" />
        </mxCell>
        <mxCell id="CmY2rEqbeD9_ClXR6DBM-37" value="P2.3" style="text;html=1;strokeColor=none;fillColor=none;align=center;verticalAlign=middle;whiteSpace=wrap;rounded=0;" vertex="1" parent="1">
          <mxGeometry x="460" y="650" width="30" height="20" as="geometry" />
        </mxCell>
        <mxCell id="CmY2rEqbeD9_ClXR6DBM-38" value="P2.2" style="text;html=1;strokeColor=none;fillColor=none;align=center;verticalAlign=middle;whiteSpace=wrap;rounded=0;" vertex="1" parent="1">
          <mxGeometry x="460" y="670" width="30" height="20" as="geometry" />
        </mxCell>
        <mxCell id="CmY2rEqbeD9_ClXR6DBM-39" value="P2.1" style="text;html=1;strokeColor=none;fillColor=none;align=center;verticalAlign=middle;whiteSpace=wrap;rounded=0;" vertex="1" parent="1">
          <mxGeometry x="460" y="690" width="30" height="20" as="geometry" />
        </mxCell>
        <mxCell id="CmY2rEqbeD9_ClXR6DBM-41" value="P2.0" style="text;html=1;strokeColor=none;fillColor=none;align=center;verticalAlign=middle;whiteSpace=wrap;rounded=0;" vertex="1" parent="1">
          <mxGeometry x="460" y="710" width="30" height="20" as="geometry" />
        </mxCell>
        <mxCell id="CmY2rEqbeD9_ClXR6DBM-42" value="GND" style="text;html=1;strokeColor=none;fillColor=none;align=center;verticalAlign=middle;whiteSpace=wrap;rounded=0;" vertex="1" parent="1">
          <mxGeometry x="360" y="710" width="30" height="20" as="geometry" />
        </mxCell>
        <mxCell id="CmY2rEqbeD9_ClXR6DBM-43" value="XTAL1" style="text;html=1;strokeColor=none;fillColor=none;align=center;verticalAlign=middle;whiteSpace=wrap;rounded=0;" vertex="1" parent="1">
          <mxGeometry x="360" y="690" width="30" height="20" as="geometry" />
        </mxCell>
        <mxCell id="CmY2rEqbeD9_ClXR6DBM-44" value="XTAL2" style="text;html=1;strokeColor=none;fillColor=none;align=center;verticalAlign=middle;whiteSpace=wrap;rounded=0;" vertex="1" parent="1">
          <mxGeometry x="360" y="670" width="30" height="20" as="geometry" />
        </mxCell>
        <mxCell id="CmY2rEqbeD9_ClXR6DBM-47" value="" style="endArrow=none;html=1;rounded=0;entryX=0.036;entryY=0.998;entryDx=0;entryDy=0;entryPerimeter=0;exitX=1;exitY=0.5;exitDx=0;exitDy=0;" edge="1" parent="1" source="CmY2rEqbeD9_ClXR6DBM-94" target="CmY2rEqbeD9_ClXR6DBM-1">
          <mxGeometry width="50" height="50" relative="1" as="geometry">
            <mxPoint x="320" y="340" as="sourcePoint" />
            <mxPoint x="350" y="339.88" as="targetPoint" />
          </mxGeometry>
        </mxCell>
        <mxCell id="CmY2rEqbeD9_ClXR6DBM-48" value="AT89S51" style="text;html=1;strokeColor=none;fillColor=none;align=center;verticalAlign=middle;whiteSpace=wrap;rounded=0;" vertex="1" parent="1">
          <mxGeometry x="395" y="300" width="60" height="30" as="geometry" />
        </mxCell>
        <mxCell id="CmY2rEqbeD9_ClXR6DBM-49" value="" style="endArrow=none;html=1;rounded=0;entryX=0.084;entryY=1;entryDx=0;entryDy=0;entryPerimeter=0;exitX=1;exitY=0.5;exitDx=0;exitDy=0;" edge="1" parent="1" source="CmY2rEqbeD9_ClXR6DBM-97" target="CmY2rEqbeD9_ClXR6DBM-1">
          <mxGeometry width="50" height="50" relative="1" as="geometry">
            <mxPoint x="320" y="359" as="sourcePoint" />
            <mxPoint x="350" y="360" as="targetPoint" />
          </mxGeometry>
        </mxCell>
        <mxCell id="CmY2rEqbeD9_ClXR6DBM-50" value="" style="endArrow=none;html=1;rounded=0;entryX=0.133;entryY=1;entryDx=0;entryDy=0;entryPerimeter=0;exitX=1;exitY=0.5;exitDx=0;exitDy=0;" edge="1" parent="1" source="CmY2rEqbeD9_ClXR6DBM-98" target="CmY2rEqbeD9_ClXR6DBM-1">
          <mxGeometry width="50" height="50" relative="1" as="geometry">
            <mxPoint x="320" y="380" as="sourcePoint" />
            <mxPoint x="350" y="380" as="targetPoint" />
          </mxGeometry>
        </mxCell>
        <mxCell id="CmY2rEqbeD9_ClXR6DBM-51" value="" style="endArrow=none;html=1;rounded=0;entryX=0.133;entryY=1;entryDx=0;entryDy=0;entryPerimeter=0;exitX=1;exitY=0.5;exitDx=0;exitDy=0;" edge="1" parent="1" source="CmY2rEqbeD9_ClXR6DBM-99">
          <mxGeometry width="50" height="50" relative="1" as="geometry">
            <mxPoint x="320" y="400" as="sourcePoint" />
            <mxPoint x="355" y="399.6000000000001" as="targetPoint" />
          </mxGeometry>
        </mxCell>
        <mxCell id="CmY2rEqbeD9_ClXR6DBM-52" value="" style="endArrow=none;html=1;rounded=0;entryX=0.133;entryY=1;entryDx=0;entryDy=0;entryPerimeter=0;" edge="1" parent="1">
          <mxGeometry width="50" height="50" relative="1" as="geometry">
            <mxPoint x="320" y="420.2" as="sourcePoint" />
            <mxPoint x="355" y="419.8000000000001" as="targetPoint" />
          </mxGeometry>
        </mxCell>
        <mxCell id="CmY2rEqbeD9_ClXR6DBM-53" value="" style="endArrow=none;html=1;rounded=0;entryX=0.133;entryY=1;entryDx=0;entryDy=0;entryPerimeter=0;" edge="1" parent="1">
          <mxGeometry width="50" height="50" relative="1" as="geometry">
            <mxPoint x="320" y="440.20000000000005" as="sourcePoint" />
            <mxPoint x="355" y="439.8000000000002" as="targetPoint" />
          </mxGeometry>
        </mxCell>
        <mxCell id="CmY2rEqbeD9_ClXR6DBM-54" value="" style="endArrow=none;html=1;rounded=0;entryX=0.133;entryY=1;entryDx=0;entryDy=0;entryPerimeter=0;" edge="1" parent="1">
          <mxGeometry width="50" height="50" relative="1" as="geometry">
            <mxPoint x="320" y="460.40000000000015" as="sourcePoint" />
            <mxPoint x="355" y="460.00000000000017" as="targetPoint" />
          </mxGeometry>
        </mxCell>
        <mxCell id="CmY2rEqbeD9_ClXR6DBM-55" value="" style="endArrow=none;html=1;rounded=0;entryX=0.133;entryY=1;entryDx=0;entryDy=0;entryPerimeter=0;" edge="1" parent="1">
          <mxGeometry width="50" height="50" relative="1" as="geometry">
            <mxPoint x="320" y="480.2000000000001" as="sourcePoint" />
            <mxPoint x="355" y="479.80000000000035" as="targetPoint" />
          </mxGeometry>
        </mxCell>
        <mxCell id="CmY2rEqbeD9_ClXR6DBM-56" value="" style="endArrow=none;html=1;rounded=0;entryX=0.133;entryY=1;entryDx=0;entryDy=0;entryPerimeter=0;" edge="1" parent="1">
          <mxGeometry width="50" height="50" relative="1" as="geometry">
            <mxPoint x="320" y="500.20000000000016" as="sourcePoint" />
            <mxPoint x="355" y="499.8000000000005" as="targetPoint" />
          </mxGeometry>
        </mxCell>
        <mxCell id="CmY2rEqbeD9_ClXR6DBM-57" value="" style="endArrow=none;html=1;rounded=0;entryX=0.133;entryY=1;entryDx=0;entryDy=0;entryPerimeter=0;" edge="1" parent="1">
          <mxGeometry width="50" height="50" relative="1" as="geometry">
            <mxPoint x="320" y="520.2000000000002" as="sourcePoint" />
            <mxPoint x="355" y="519.8000000000005" as="targetPoint" />
          </mxGeometry>
        </mxCell>
        <mxCell id="CmY2rEqbeD9_ClXR6DBM-58" value="" style="endArrow=none;html=1;rounded=0;entryX=0.133;entryY=1;entryDx=0;entryDy=0;entryPerimeter=0;" edge="1" parent="1">
          <mxGeometry width="50" height="50" relative="1" as="geometry">
            <mxPoint x="320" y="540.2000000000002" as="sourcePoint" />
            <mxPoint x="355" y="539.8000000000005" as="targetPoint" />
          </mxGeometry>
        </mxCell>
        <mxCell id="CmY2rEqbeD9_ClXR6DBM-59" value="" style="endArrow=none;html=1;rounded=0;entryX=0.133;entryY=1;entryDx=0;entryDy=0;entryPerimeter=0;" edge="1" parent="1">
          <mxGeometry width="50" height="50" relative="1" as="geometry">
            <mxPoint x="320" y="560.1100000000001" as="sourcePoint" />
            <mxPoint x="355" y="559.7100000000005" as="targetPoint" />
          </mxGeometry>
        </mxCell>
        <mxCell id="CmY2rEqbeD9_ClXR6DBM-60" value="" style="endArrow=none;html=1;rounded=0;entryX=0.133;entryY=1;entryDx=0;entryDy=0;entryPerimeter=0;" edge="1" parent="1">
          <mxGeometry width="50" height="50" relative="1" as="geometry">
            <mxPoint x="320" y="580.11" as="sourcePoint" />
            <mxPoint x="355" y="579.7100000000004" as="targetPoint" />
          </mxGeometry>
        </mxCell>
        <mxCell id="CmY2rEqbeD9_ClXR6DBM-61" value="" style="endArrow=none;html=1;rounded=0;entryX=0.133;entryY=1;entryDx=0;entryDy=0;entryPerimeter=0;" edge="1" parent="1">
          <mxGeometry width="50" height="50" relative="1" as="geometry">
            <mxPoint x="320" y="600.4" as="sourcePoint" />
            <mxPoint x="355" y="600.0000000000003" as="targetPoint" />
          </mxGeometry>
        </mxCell>
        <mxCell id="CmY2rEqbeD9_ClXR6DBM-62" value="" style="endArrow=none;html=1;rounded=0;entryX=0.133;entryY=1;entryDx=0;entryDy=0;entryPerimeter=0;" edge="1" parent="1">
          <mxGeometry width="50" height="50" relative="1" as="geometry">
            <mxPoint x="320" y="620.11" as="sourcePoint" />
            <mxPoint x="355" y="619.7100000000004" as="targetPoint" />
          </mxGeometry>
        </mxCell>
        <mxCell id="CmY2rEqbeD9_ClXR6DBM-63" value="" style="endArrow=none;html=1;rounded=0;entryX=0.133;entryY=1;entryDx=0;entryDy=0;entryPerimeter=0;" edge="1" parent="1">
          <mxGeometry width="50" height="50" relative="1" as="geometry">
            <mxPoint x="320" y="640.11" as="sourcePoint" />
            <mxPoint x="355" y="639.7100000000004" as="targetPoint" />
          </mxGeometry>
        </mxCell>
        <mxCell id="CmY2rEqbeD9_ClXR6DBM-64" value="" style="endArrow=none;html=1;rounded=0;entryX=0.133;entryY=1;entryDx=0;entryDy=0;entryPerimeter=0;" edge="1" parent="1">
          <mxGeometry width="50" height="50" relative="1" as="geometry">
            <mxPoint x="320" y="660.11" as="sourcePoint" />
            <mxPoint x="355" y="659.7100000000004" as="targetPoint" />
          </mxGeometry>
        </mxCell>
        <mxCell id="CmY2rEqbeD9_ClXR6DBM-65" value="" style="endArrow=none;html=1;rounded=0;entryX=0.133;entryY=1;entryDx=0;entryDy=0;entryPerimeter=0;" edge="1" parent="1">
          <mxGeometry width="50" height="50" relative="1" as="geometry">
            <mxPoint x="320" y="680.11" as="sourcePoint" />
            <mxPoint x="355" y="679.7100000000004" as="targetPoint" />
          </mxGeometry>
        </mxCell>
        <mxCell id="CmY2rEqbeD9_ClXR6DBM-66" value="" style="endArrow=none;html=1;rounded=0;entryX=0.133;entryY=1;entryDx=0;entryDy=0;entryPerimeter=0;" edge="1" parent="1">
          <mxGeometry width="50" height="50" relative="1" as="geometry">
            <mxPoint x="320" y="700.11" as="sourcePoint" />
            <mxPoint x="355" y="699.7100000000004" as="targetPoint" />
          </mxGeometry>
        </mxCell>
        <mxCell id="CmY2rEqbeD9_ClXR6DBM-67" value="" style="endArrow=none;html=1;rounded=0;entryX=0.133;entryY=1;entryDx=0;entryDy=0;entryPerimeter=0;" edge="1" parent="1">
          <mxGeometry width="50" height="50" relative="1" as="geometry">
            <mxPoint x="320" y="720.11" as="sourcePoint" />
            <mxPoint x="355" y="719.7100000000004" as="targetPoint" />
          </mxGeometry>
        </mxCell>
        <mxCell id="CmY2rEqbeD9_ClXR6DBM-69" value="" style="endArrow=none;html=1;rounded=0;exitX=0.963;exitY=0;exitDx=0;exitDy=0;exitPerimeter=0;entryX=0;entryY=0.5;entryDx=0;entryDy=0;" edge="1" parent="1" target="CmY2rEqbeD9_ClXR6DBM-102">
          <mxGeometry width="50" height="50" relative="1" as="geometry">
            <mxPoint x="495" y="699.88" as="sourcePoint" />
            <mxPoint x="530" y="700.05" as="targetPoint" />
          </mxGeometry>
        </mxCell>
        <mxCell id="CmY2rEqbeD9_ClXR6DBM-70" value="" style="endArrow=none;html=1;rounded=0;exitX=0.963;exitY=0;exitDx=0;exitDy=0;exitPerimeter=0;entryX=0;entryY=0.5;entryDx=0;entryDy=0;" edge="1" parent="1" target="CmY2rEqbeD9_ClXR6DBM-100">
          <mxGeometry width="50" height="50" relative="1" as="geometry">
            <mxPoint x="495" y="719.88" as="sourcePoint" />
            <mxPoint x="530" y="720.05" as="targetPoint" />
          </mxGeometry>
        </mxCell>
        <mxCell id="CmY2rEqbeD9_ClXR6DBM-71" value="" style="endArrow=none;html=1;rounded=0;exitX=0.963;exitY=0;exitDx=0;exitDy=0;exitPerimeter=0;" edge="1" parent="1" target="CmY2rEqbeD9_ClXR6DBM-103">
          <mxGeometry width="50" height="50" relative="1" as="geometry">
            <mxPoint x="495" y="679.88" as="sourcePoint" />
            <mxPoint x="530" y="680.05" as="targetPoint" />
          </mxGeometry>
        </mxCell>
        <mxCell id="CmY2rEqbeD9_ClXR6DBM-72" value="" style="endArrow=none;html=1;rounded=0;exitX=0.963;exitY=0;exitDx=0;exitDy=0;exitPerimeter=0;entryX=0;entryY=0.5;entryDx=0;entryDy=0;" edge="1" parent="1" target="CmY2rEqbeD9_ClXR6DBM-104">
          <mxGeometry width="50" height="50" relative="1" as="geometry">
            <mxPoint x="495" y="659.88" as="sourcePoint" />
            <mxPoint x="530" y="660.05" as="targetPoint" />
          </mxGeometry>
        </mxCell>
        <mxCell id="CmY2rEqbeD9_ClXR6DBM-73" value="" style="endArrow=none;html=1;rounded=0;exitX=0.963;exitY=0;exitDx=0;exitDy=0;exitPerimeter=0;" edge="1" parent="1">
          <mxGeometry width="50" height="50" relative="1" as="geometry">
            <mxPoint x="495" y="639.88" as="sourcePoint" />
            <mxPoint x="530" y="640.05" as="targetPoint" />
          </mxGeometry>
        </mxCell>
        <mxCell id="CmY2rEqbeD9_ClXR6DBM-74" value="" style="endArrow=none;html=1;rounded=0;exitX=0.963;exitY=0;exitDx=0;exitDy=0;exitPerimeter=0;" edge="1" parent="1">
          <mxGeometry width="50" height="50" relative="1" as="geometry">
            <mxPoint x="495" y="619.88" as="sourcePoint" />
            <mxPoint x="530" y="620.05" as="targetPoint" />
          </mxGeometry>
        </mxCell>
        <mxCell id="CmY2rEqbeD9_ClXR6DBM-75" value="" style="endArrow=none;html=1;rounded=0;exitX=0.963;exitY=0;exitDx=0;exitDy=0;exitPerimeter=0;" edge="1" parent="1">
          <mxGeometry width="50" height="50" relative="1" as="geometry">
            <mxPoint x="494" y="600" as="sourcePoint" />
            <mxPoint x="529" y="600.17" as="targetPoint" />
          </mxGeometry>
        </mxCell>
        <mxCell id="CmY2rEqbeD9_ClXR6DBM-76" value="" style="endArrow=none;html=1;rounded=0;exitX=0.963;exitY=0;exitDx=0;exitDy=0;exitPerimeter=0;" edge="1" parent="1">
          <mxGeometry width="50" height="50" relative="1" as="geometry">
            <mxPoint x="495" y="579.88" as="sourcePoint" />
            <mxPoint x="530" y="580.05" as="targetPoint" />
          </mxGeometry>
        </mxCell>
        <mxCell id="CmY2rEqbeD9_ClXR6DBM-77" value="" style="endArrow=none;html=1;rounded=0;exitX=0.963;exitY=0;exitDx=0;exitDy=0;exitPerimeter=0;" edge="1" parent="1">
          <mxGeometry width="50" height="50" relative="1" as="geometry">
            <mxPoint x="495" y="559.88" as="sourcePoint" />
            <mxPoint x="530" y="560.05" as="targetPoint" />
          </mxGeometry>
        </mxCell>
        <mxCell id="CmY2rEqbeD9_ClXR6DBM-79" value="" style="endArrow=none;html=1;rounded=0;exitX=0.963;exitY=0;exitDx=0;exitDy=0;exitPerimeter=0;" edge="1" parent="1">
          <mxGeometry width="50" height="50" relative="1" as="geometry">
            <mxPoint x="494" y="539.88" as="sourcePoint" />
            <mxPoint x="529" y="540.05" as="targetPoint" />
          </mxGeometry>
        </mxCell>
        <mxCell id="CmY2rEqbeD9_ClXR6DBM-80" value="" style="endArrow=none;html=1;rounded=0;exitX=0.963;exitY=0;exitDx=0;exitDy=0;exitPerimeter=0;" edge="1" parent="1">
          <mxGeometry width="50" height="50" relative="1" as="geometry">
            <mxPoint x="495" y="519.88" as="sourcePoint" />
            <mxPoint x="530" y="520.05" as="targetPoint" />
          </mxGeometry>
        </mxCell>
        <mxCell id="CmY2rEqbeD9_ClXR6DBM-81" value="" style="endArrow=none;html=1;rounded=0;exitX=0.963;exitY=0;exitDx=0;exitDy=0;exitPerimeter=0;" edge="1" parent="1">
          <mxGeometry width="50" height="50" relative="1" as="geometry">
            <mxPoint x="495" y="499.88" as="sourcePoint" />
            <mxPoint x="530" y="500.04999999999995" as="targetPoint" />
          </mxGeometry>
        </mxCell>
        <mxCell id="CmY2rEqbeD9_ClXR6DBM-82" value="" style="endArrow=none;html=1;rounded=0;exitX=0.963;exitY=0;exitDx=0;exitDy=0;exitPerimeter=0;" edge="1" parent="1">
          <mxGeometry width="50" height="50" relative="1" as="geometry">
            <mxPoint x="495" y="479.88" as="sourcePoint" />
            <mxPoint x="530" y="480.04999999999995" as="targetPoint" />
          </mxGeometry>
        </mxCell>
        <mxCell id="CmY2rEqbeD9_ClXR6DBM-83" value="" style="endArrow=none;html=1;rounded=0;exitX=0.963;exitY=0;exitDx=0;exitDy=0;exitPerimeter=0;" edge="1" parent="1">
          <mxGeometry width="50" height="50" relative="1" as="geometry">
            <mxPoint x="495" y="459.88" as="sourcePoint" />
            <mxPoint x="530" y="460.04999999999995" as="targetPoint" />
          </mxGeometry>
        </mxCell>
        <mxCell id="CmY2rEqbeD9_ClXR6DBM-84" value="" style="endArrow=none;html=1;rounded=0;exitX=0.963;exitY=0;exitDx=0;exitDy=0;exitPerimeter=0;" edge="1" parent="1">
          <mxGeometry width="50" height="50" relative="1" as="geometry">
            <mxPoint x="494" y="439.88" as="sourcePoint" />
            <mxPoint x="529" y="440.04999999999995" as="targetPoint" />
          </mxGeometry>
        </mxCell>
        <mxCell id="CmY2rEqbeD9_ClXR6DBM-85" value="" style="endArrow=none;html=1;rounded=0;exitX=0.963;exitY=0;exitDx=0;exitDy=0;exitPerimeter=0;entryX=0;entryY=0.5;entryDx=0;entryDy=0;" edge="1" parent="1" target="CmY2rEqbeD9_ClXR6DBM-93">
          <mxGeometry width="50" height="50" relative="1" as="geometry">
            <mxPoint x="495" y="419.88" as="sourcePoint" />
            <mxPoint x="530" y="420.04999999999995" as="targetPoint" />
          </mxGeometry>
        </mxCell>
        <mxCell id="CmY2rEqbeD9_ClXR6DBM-86" value="" style="endArrow=none;html=1;rounded=0;exitX=0.963;exitY=0;exitDx=0;exitDy=0;exitPerimeter=0;entryX=0;entryY=0.5;entryDx=0;entryDy=0;" edge="1" parent="1" target="CmY2rEqbeD9_ClXR6DBM-92">
          <mxGeometry width="50" height="50" relative="1" as="geometry">
            <mxPoint x="495" y="399.88" as="sourcePoint" />
            <mxPoint x="530" y="400.04999999999995" as="targetPoint" />
          </mxGeometry>
        </mxCell>
        <mxCell id="CmY2rEqbeD9_ClXR6DBM-87" value="" style="endArrow=none;html=1;rounded=0;exitX=0.963;exitY=0;exitDx=0;exitDy=0;exitPerimeter=0;entryX=0;entryY=0.5;entryDx=0;entryDy=0;" edge="1" parent="1" target="CmY2rEqbeD9_ClXR6DBM-90">
          <mxGeometry width="50" height="50" relative="1" as="geometry">
            <mxPoint x="495" y="379.88" as="sourcePoint" />
            <mxPoint x="530" y="380.04999999999995" as="targetPoint" />
          </mxGeometry>
        </mxCell>
        <mxCell id="CmY2rEqbeD9_ClXR6DBM-88" value="" style="endArrow=none;html=1;rounded=0;exitX=0.963;exitY=0;exitDx=0;exitDy=0;exitPerimeter=0;entryX=0;entryY=0.5;entryDx=0;entryDy=0;" edge="1" parent="1" target="CmY2rEqbeD9_ClXR6DBM-91">
          <mxGeometry width="50" height="50" relative="1" as="geometry">
            <mxPoint x="495" y="359.88" as="sourcePoint" />
            <mxPoint x="530" y="360.04999999999995" as="targetPoint" />
          </mxGeometry>
        </mxCell>
        <mxCell id="CmY2rEqbeD9_ClXR6DBM-89" value="" style="endArrow=none;html=1;rounded=0;exitX=0.963;exitY=0;exitDx=0;exitDy=0;exitPerimeter=0;" edge="1" parent="1">
          <mxGeometry width="50" height="50" relative="1" as="geometry">
            <mxPoint x="495" y="339.88" as="sourcePoint" />
            <mxPoint x="530" y="340.04999999999995" as="targetPoint" />
          </mxGeometry>
        </mxCell>
        <mxCell id="CmY2rEqbeD9_ClXR6DBM-90" value="" style="rounded=0;whiteSpace=wrap;html=1;align=left;" vertex="1" parent="1">
          <mxGeometry x="560" y="375" width="30" height="10" as="geometry" />
        </mxCell>
        <mxCell id="CmY2rEqbeD9_ClXR6DBM-91" value="" style="rounded=0;whiteSpace=wrap;html=1;align=left;" vertex="1" parent="1">
          <mxGeometry x="560" y="355" width="30" height="10" as="geometry" />
        </mxCell>
        <mxCell id="CmY2rEqbeD9_ClXR6DBM-92" value="" style="rounded=0;whiteSpace=wrap;html=1;align=left;" vertex="1" parent="1">
          <mxGeometry x="560" y="395" width="30" height="10" as="geometry" />
        </mxCell>
        <mxCell id="CmY2rEqbeD9_ClXR6DBM-93" value="" style="rounded=0;whiteSpace=wrap;html=1;align=left;" vertex="1" parent="1">
          <mxGeometry x="560" y="415" width="30" height="10" as="geometry" />
        </mxCell>
        <mxCell id="CmY2rEqbeD9_ClXR6DBM-94" value="" style="rounded=0;whiteSpace=wrap;html=1;align=left;" vertex="1" parent="1">
          <mxGeometry x="260" y="335" width="30" height="10" as="geometry" />
        </mxCell>
        <mxCell id="CmY2rEqbeD9_ClXR6DBM-97" value="" style="rounded=0;whiteSpace=wrap;html=1;align=left;" vertex="1" parent="1">
          <mxGeometry x="260" y="355" width="30" height="10" as="geometry" />
        </mxCell>
        <mxCell id="CmY2rEqbeD9_ClXR6DBM-98" value="" style="rounded=0;whiteSpace=wrap;html=1;align=left;" vertex="1" parent="1">
          <mxGeometry x="260" y="375" width="30" height="10" as="geometry" />
        </mxCell>
        <mxCell id="CmY2rEqbeD9_ClXR6DBM-99" value="" style="rounded=0;whiteSpace=wrap;html=1;align=left;" vertex="1" parent="1">
          <mxGeometry x="260" y="395" width="30" height="10" as="geometry" />
        </mxCell>
        <mxCell id="CmY2rEqbeD9_ClXR6DBM-100" value="" style="rounded=0;whiteSpace=wrap;html=1;align=left;" vertex="1" parent="1">
          <mxGeometry x="560" y="715" width="30" height="10" as="geometry" />
        </mxCell>
        <mxCell id="CmY2rEqbeD9_ClXR6DBM-102" value="" style="rounded=0;whiteSpace=wrap;html=1;align=left;" vertex="1" parent="1">
          <mxGeometry x="560" y="695" width="30" height="10" as="geometry" />
        </mxCell>
        <mxCell id="CmY2rEqbeD9_ClXR6DBM-103" value="" style="rounded=0;whiteSpace=wrap;html=1;align=left;" vertex="1" parent="1">
          <mxGeometry x="560" y="675" width="30" height="10" as="geometry" />
        </mxCell>
        <mxCell id="CmY2rEqbeD9_ClXR6DBM-104" value="" style="rounded=0;whiteSpace=wrap;html=1;align=left;" vertex="1" parent="1">
          <mxGeometry x="560" y="655" width="30" height="10" as="geometry" />
        </mxCell>
        <mxCell id="CmY2rEqbeD9_ClXR6DBM-118" style="edgeStyle=orthogonalEdgeStyle;rounded=0;orthogonalLoop=1;jettySize=auto;html=1;exitX=1;exitY=0.57;exitDx=0;exitDy=0;exitPerimeter=0;endArrow=none;endFill=0;" edge="1" parent="1" source="CmY2rEqbeD9_ClXR6DBM-105">
          <mxGeometry relative="1" as="geometry">
            <mxPoint x="160" y="339.04761904761904" as="targetPoint" />
            <Array as="points">
              <mxPoint x="680" y="360" />
              <mxPoint x="680" y="800" />
              <mxPoint x="60" y="800" />
              <mxPoint x="60" y="339" />
            </Array>
          </mxGeometry>
        </mxCell>
        <mxCell id="CmY2rEqbeD9_ClXR6DBM-105" value="" style="verticalLabelPosition=bottom;shadow=0;dashed=0;align=center;html=1;verticalAlign=top;shape=mxgraph.electrical.opto_electronics.led_2;pointerEvents=1;" vertex="1" parent="1">
          <mxGeometry x="590" y="349" width="50" height="20" as="geometry" />
        </mxCell>
        <mxCell id="CmY2rEqbeD9_ClXR6DBM-124" style="edgeStyle=orthogonalEdgeStyle;rounded=0;orthogonalLoop=1;jettySize=auto;html=1;endArrow=none;endFill=0;" edge="1" parent="1">
          <mxGeometry relative="1" as="geometry">
            <mxPoint x="680" y="380" as="targetPoint" />
            <mxPoint x="640" y="380" as="sourcePoint" />
          </mxGeometry>
        </mxCell>
        <mxCell id="CmY2rEqbeD9_ClXR6DBM-106" value="" style="verticalLabelPosition=bottom;shadow=0;dashed=0;align=center;html=1;verticalAlign=top;shape=mxgraph.electrical.opto_electronics.led_2;pointerEvents=1;" vertex="1" parent="1">
          <mxGeometry x="590" y="370" width="50" height="20" as="geometry" />
        </mxCell>
        <mxCell id="CmY2rEqbeD9_ClXR6DBM-125" style="edgeStyle=orthogonalEdgeStyle;rounded=0;orthogonalLoop=1;jettySize=auto;html=1;endArrow=none;endFill=0;" edge="1" parent="1">
          <mxGeometry relative="1" as="geometry">
            <mxPoint x="680" y="399" as="targetPoint" />
            <mxPoint x="640" y="399" as="sourcePoint" />
            <Array as="points">
              <mxPoint x="660" y="399" />
              <mxPoint x="660" y="399" />
            </Array>
          </mxGeometry>
        </mxCell>
        <mxCell id="CmY2rEqbeD9_ClXR6DBM-107" value="" style="verticalLabelPosition=bottom;shadow=0;dashed=0;align=center;html=1;verticalAlign=top;shape=mxgraph.electrical.opto_electronics.led_2;pointerEvents=1;" vertex="1" parent="1">
          <mxGeometry x="590" y="388" width="50" height="20" as="geometry" />
        </mxCell>
        <mxCell id="CmY2rEqbeD9_ClXR6DBM-126" style="edgeStyle=orthogonalEdgeStyle;rounded=0;orthogonalLoop=1;jettySize=auto;html=1;endArrow=none;endFill=0;" edge="1" parent="1" source="CmY2rEqbeD9_ClXR6DBM-108">
          <mxGeometry relative="1" as="geometry">
            <mxPoint x="680" y="420" as="targetPoint" />
            <Array as="points">
              <mxPoint x="650" y="420" />
              <mxPoint x="650" y="420" />
            </Array>
          </mxGeometry>
        </mxCell>
        <mxCell id="CmY2rEqbeD9_ClXR6DBM-108" value="" style="verticalLabelPosition=bottom;shadow=0;dashed=0;align=center;html=1;verticalAlign=top;shape=mxgraph.electrical.opto_electronics.led_2;pointerEvents=1;" vertex="1" parent="1">
          <mxGeometry x="590" y="409" width="50" height="20" as="geometry" />
        </mxCell>
        <mxCell id="CmY2rEqbeD9_ClXR6DBM-121" style="edgeStyle=orthogonalEdgeStyle;rounded=0;orthogonalLoop=1;jettySize=auto;html=1;exitX=1;exitY=0.57;exitDx=0;exitDy=0;exitPerimeter=0;endArrow=none;endFill=0;" edge="1" parent="1" source="CmY2rEqbeD9_ClXR6DBM-109">
          <mxGeometry relative="1" as="geometry">
            <mxPoint x="680" y="679.5714285714284" as="targetPoint" />
          </mxGeometry>
        </mxCell>
        <mxCell id="CmY2rEqbeD9_ClXR6DBM-109" value="" style="verticalLabelPosition=bottom;shadow=0;dashed=0;align=center;html=1;verticalAlign=top;shape=mxgraph.electrical.opto_electronics.led_2;pointerEvents=1;" vertex="1" parent="1">
          <mxGeometry x="590" y="668" width="50" height="20" as="geometry" />
        </mxCell>
        <mxCell id="CmY2rEqbeD9_ClXR6DBM-119" style="edgeStyle=orthogonalEdgeStyle;orthogonalLoop=1;jettySize=auto;html=1;rounded=0;endArrow=none;endFill=0;exitX=1;exitY=0.5;exitDx=0;exitDy=0;exitPerimeter=0;" edge="1" parent="1">
          <mxGeometry relative="1" as="geometry">
            <mxPoint x="680" y="659.0000000000001" as="targetPoint" />
            <mxPoint x="640" y="659.0000000000001" as="sourcePoint" />
          </mxGeometry>
        </mxCell>
        <mxCell id="CmY2rEqbeD9_ClXR6DBM-110" value="" style="verticalLabelPosition=bottom;shadow=0;dashed=0;align=center;html=1;verticalAlign=top;shape=mxgraph.electrical.opto_electronics.led_2;pointerEvents=1;" vertex="1" parent="1">
          <mxGeometry x="590" y="648" width="50" height="20" as="geometry" />
        </mxCell>
        <mxCell id="CmY2rEqbeD9_ClXR6DBM-122" style="edgeStyle=orthogonalEdgeStyle;rounded=0;orthogonalLoop=1;jettySize=auto;html=1;endArrow=none;endFill=0;" edge="1" parent="1">
          <mxGeometry relative="1" as="geometry">
            <mxPoint x="680" y="700" as="targetPoint" />
            <mxPoint x="640" y="700" as="sourcePoint" />
          </mxGeometry>
        </mxCell>
        <mxCell id="CmY2rEqbeD9_ClXR6DBM-111" value="" style="verticalLabelPosition=bottom;shadow=0;dashed=0;align=center;html=1;verticalAlign=top;shape=mxgraph.electrical.opto_electronics.led_2;pointerEvents=1;" vertex="1" parent="1">
          <mxGeometry x="590" y="689" width="50" height="20" as="geometry" />
        </mxCell>
        <mxCell id="CmY2rEqbeD9_ClXR6DBM-123" style="edgeStyle=orthogonalEdgeStyle;rounded=0;orthogonalLoop=1;jettySize=auto;html=1;exitX=1;exitY=0.57;exitDx=0;exitDy=0;exitPerimeter=0;endArrow=none;endFill=0;" edge="1" parent="1" source="CmY2rEqbeD9_ClXR6DBM-112">
          <mxGeometry relative="1" as="geometry">
            <mxPoint x="680" y="719.5714285714284" as="targetPoint" />
          </mxGeometry>
        </mxCell>
        <mxCell id="CmY2rEqbeD9_ClXR6DBM-112" value="" style="verticalLabelPosition=bottom;shadow=0;dashed=0;align=center;html=1;verticalAlign=top;shape=mxgraph.electrical.opto_electronics.led_2;pointerEvents=1;" vertex="1" parent="1">
          <mxGeometry x="590" y="708" width="50" height="20" as="geometry" />
        </mxCell>
        <mxCell id="CmY2rEqbeD9_ClXR6DBM-127" style="edgeStyle=orthogonalEdgeStyle;rounded=0;orthogonalLoop=1;jettySize=auto;html=1;endArrow=none;endFill=0;" edge="1" parent="1">
          <mxGeometry relative="1" as="geometry">
            <mxPoint x="160" y="339" as="targetPoint" />
            <mxPoint x="210" y="339" as="sourcePoint" />
          </mxGeometry>
        </mxCell>
        <mxCell id="CmY2rEqbeD9_ClXR6DBM-113" value="" style="verticalLabelPosition=bottom;shadow=0;dashed=0;align=center;html=1;verticalAlign=top;shape=mxgraph.electrical.opto_electronics.led_2;pointerEvents=1;rotation=-180;" vertex="1" parent="1">
          <mxGeometry x="210" y="331" width="50" height="20" as="geometry" />
        </mxCell>
        <mxCell id="CmY2rEqbeD9_ClXR6DBM-128" style="edgeStyle=orthogonalEdgeStyle;rounded=0;orthogonalLoop=1;jettySize=auto;html=1;endArrow=none;endFill=0;" edge="1" parent="1">
          <mxGeometry relative="1" as="geometry">
            <mxPoint x="120" y="360" as="targetPoint" />
            <mxPoint x="210" y="360" as="sourcePoint" />
          </mxGeometry>
        </mxCell>
        <mxCell id="CmY2rEqbeD9_ClXR6DBM-115" value="" style="verticalLabelPosition=bottom;shadow=0;dashed=0;align=center;html=1;verticalAlign=top;shape=mxgraph.electrical.opto_electronics.led_2;pointerEvents=1;rotation=-180;" vertex="1" parent="1">
          <mxGeometry x="210" y="351" width="50" height="20" as="geometry" />
        </mxCell>
        <mxCell id="CmY2rEqbeD9_ClXR6DBM-129" style="edgeStyle=orthogonalEdgeStyle;rounded=0;orthogonalLoop=1;jettySize=auto;html=1;endArrow=none;endFill=0;" edge="1" parent="1">
          <mxGeometry relative="1" as="geometry">
            <mxPoint x="120" y="380" as="targetPoint" />
            <mxPoint x="210" y="380" as="sourcePoint" />
          </mxGeometry>
        </mxCell>
        <mxCell id="CmY2rEqbeD9_ClXR6DBM-116" value="" style="verticalLabelPosition=bottom;shadow=0;dashed=0;align=center;html=1;verticalAlign=top;shape=mxgraph.electrical.opto_electronics.led_2;pointerEvents=1;rotation=-180;" vertex="1" parent="1">
          <mxGeometry x="210" y="371" width="50" height="20" as="geometry" />
        </mxCell>
        <mxCell id="CmY2rEqbeD9_ClXR6DBM-130" style="edgeStyle=orthogonalEdgeStyle;rounded=0;orthogonalLoop=1;jettySize=auto;html=1;endArrow=none;endFill=0;" edge="1" parent="1">
          <mxGeometry relative="1" as="geometry">
            <mxPoint x="120" y="401" as="targetPoint" />
            <mxPoint x="210" y="401" as="sourcePoint" />
          </mxGeometry>
        </mxCell>
        <mxCell id="CmY2rEqbeD9_ClXR6DBM-117" value="" style="verticalLabelPosition=bottom;shadow=0;dashed=0;align=center;html=1;verticalAlign=top;shape=mxgraph.electrical.opto_electronics.led_2;pointerEvents=1;rotation=-180;" vertex="1" parent="1">
          <mxGeometry x="210" y="392" width="50" height="20" as="geometry" />
        </mxCell>
        <mxCell id="CmY2rEqbeD9_ClXR6DBM-131" value="" style="rounded=0;whiteSpace=wrap;html=1;align=left;" vertex="1" parent="1">
          <mxGeometry x="265" y="515" width="30" height="10" as="geometry" />
        </mxCell>
        <mxCell id="CmY2rEqbeD9_ClXR6DBM-133" value="" style="rounded=0;whiteSpace=wrap;html=1;align=left;" vertex="1" parent="1">
          <mxGeometry x="266" y="535" width="30" height="10" as="geometry" />
        </mxCell>
        <mxCell id="CmY2rEqbeD9_ClXR6DBM-134" value="" style="rounded=0;whiteSpace=wrap;html=1;align=left;" vertex="1" parent="1">
          <mxGeometry x="290" y="555" width="30" height="10" as="geometry" />
        </mxCell>
        <mxCell id="CmY2rEqbeD9_ClXR6DBM-135" value="" style="rounded=0;whiteSpace=wrap;html=1;align=left;" vertex="1" parent="1">
          <mxGeometry x="267" y="575" width="30" height="10" as="geometry" />
        </mxCell>
        <mxCell id="CmY2rEqbeD9_ClXR6DBM-136" value="" style="rounded=0;whiteSpace=wrap;html=1;align=left;" vertex="1" parent="1">
          <mxGeometry x="267" y="595" width="30" height="10" as="geometry" />
        </mxCell>
        <mxCell id="CmY2rEqbeD9_ClXR6DBM-137" value="" style="rounded=0;whiteSpace=wrap;html=1;align=left;" vertex="1" parent="1">
          <mxGeometry x="267" y="615" width="30" height="10" as="geometry" />
        </mxCell>
        <mxCell id="CmY2rEqbeD9_ClXR6DBM-138" value="" style="rounded=0;whiteSpace=wrap;html=1;align=left;" vertex="1" parent="1">
          <mxGeometry x="267" y="635" width="30" height="10" as="geometry" />
        </mxCell>
        <mxCell id="CmY2rEqbeD9_ClXR6DBM-139" value="" style="rounded=0;whiteSpace=wrap;html=1;align=left;" vertex="1" parent="1">
          <mxGeometry x="267" y="655" width="30" height="10" as="geometry" />
        </mxCell>
        <mxCell id="CmY2rEqbeD9_ClXR6DBM-142" value="" style="rounded=0;whiteSpace=wrap;html=1;align=left;rotation=90;" vertex="1" parent="1">
          <mxGeometry x="155.08" y="559.88" width="70.05" height="60" as="geometry" />
        </mxCell>
        <mxCell id="CmY2rEqbeD9_ClXR6DBM-141" value="" style="verticalLabelPosition=bottom;shadow=0;dashed=0;align=center;html=1;verticalAlign=top;shape=mxgraph.electrical.opto_electronics.7_segment_display_with_dp;pointerEvents=1;" vertex="1" parent="1">
          <mxGeometry x="170.2" y="562.38" width="39.8" height="55" as="geometry" />
        </mxCell>
      </root>
    </mxGraphModel>
  </diagram>
</mxfile>
